<mxfile host="65bd71144e">
    <diagram id="1Ldih2aekW2Ma7BNyFv4" name="PÃ¡gina-1">
        <mxGraphModel dx="1456" dy="1113" grid="1" gridSize="10" guides="1" tooltips="1" connect="1" arrows="1" fold="1" page="1" pageScale="1" pageWidth="827" pageHeight="1169" background="#ffffff" math="0" shadow="0">
            <root>
                <mxCell id="0"/>
                <mxCell id="1" parent="0"/>
                <mxCell id="3" value="Iterable" style="rounded=0;whiteSpace=wrap;html=1;fillColor=#fa6800;fontColor=#000000;strokeColor=#C73500;fontSize=25;fontStyle=0;fontFamily=Comic Sans MS;" parent="1" vertex="1">
                    <mxGeometry x="340" y="110" width="120" height="60" as="geometry"/>
                </mxCell>
                <mxCell id="23" style="edgeStyle=none;html=1;exitX=0.5;exitY=0;exitDx=0;exitDy=0;strokeColor=#000000;strokeWidth=3;fontFamily=Comic Sans MS;fontSize=25;fontColor=default;endArrow=diamondThin;endFill=1;dashed=1;" parent="1" source="4" edge="1">
                    <mxGeometry relative="1" as="geometry">
                        <mxPoint x="400" y="170" as="targetPoint"/>
                    </mxGeometry>
                </mxCell>
                <mxCell id="4" value="Collection" style="rounded=0;whiteSpace=wrap;html=1;fillColor=#fa6800;fontColor=#000000;strokeColor=#C73500;fontSize=25;fontStyle=0;fontFamily=Comic Sans MS;" parent="1" vertex="1">
                    <mxGeometry x="320" y="220" width="160" height="60" as="geometry"/>
                </mxCell>
                <mxCell id="25" style="edgeStyle=none;html=1;entryX=0;entryY=0.5;entryDx=0;entryDy=0;strokeColor=#000000;strokeWidth=3;fontFamily=Comic Sans MS;fontSize=25;fontColor=default;endArrow=diamondThin;endFill=1;dashed=1;" parent="1" source="5" target="4" edge="1">
                    <mxGeometry relative="1" as="geometry">
                        <Array as="points">
                            <mxPoint x="120" y="250"/>
                        </Array>
                    </mxGeometry>
                </mxCell>
                <mxCell id="5" value="Set" style="rounded=0;whiteSpace=wrap;html=1;fillColor=#fa6800;fontColor=#000000;strokeColor=#C73500;fontSize=25;fontStyle=0;fontFamily=Comic Sans MS;" parent="1" vertex="1">
                    <mxGeometry x="40" y="320" width="160" height="60" as="geometry"/>
                </mxCell>
                <mxCell id="24" style="edgeStyle=none;html=1;exitX=0.5;exitY=0;exitDx=0;exitDy=0;entryX=0.5;entryY=1;entryDx=0;entryDy=0;strokeColor=#000000;strokeWidth=3;fontFamily=Comic Sans MS;fontSize=25;fontColor=default;endArrow=diamondThin;endFill=1;dashed=1;" parent="1" source="6" target="4" edge="1">
                    <mxGeometry relative="1" as="geometry"/>
                </mxCell>
                <mxCell id="6" value="List" style="rounded=0;whiteSpace=wrap;html=1;fillColor=#fa6800;fontColor=#000000;strokeColor=#C73500;fontSize=25;fontStyle=0;fontFamily=Comic Sans MS;" parent="1" vertex="1">
                    <mxGeometry x="320" y="320" width="160" height="60" as="geometry"/>
                </mxCell>
                <mxCell id="26" style="edgeStyle=none;html=1;exitX=0.5;exitY=0;exitDx=0;exitDy=0;entryX=1;entryY=0.5;entryDx=0;entryDy=0;strokeColor=#000000;strokeWidth=3;fontFamily=Comic Sans MS;fontSize=25;fontColor=default;endArrow=diamondThin;endFill=1;dashed=1;" parent="1" source="7" target="4" edge="1">
                    <mxGeometry relative="1" as="geometry">
                        <Array as="points">
                            <mxPoint x="680" y="250"/>
                        </Array>
                    </mxGeometry>
                </mxCell>
                <mxCell id="7" value="Queue" style="rounded=0;whiteSpace=wrap;html=1;fillColor=#fa6800;fontColor=#000000;strokeColor=#C73500;fontSize=25;fontStyle=0;fontFamily=Comic Sans MS;" parent="1" vertex="1">
                    <mxGeometry x="600" y="320" width="160" height="60" as="geometry"/>
                </mxCell>
                <mxCell id="35" style="edgeStyle=none;html=1;exitX=0;exitY=0.5;exitDx=0;exitDy=0;entryX=0;entryY=0.5;entryDx=0;entryDy=0;strokeColor=#000000;strokeWidth=3;fontFamily=Comic Sans MS;fontSize=25;fontColor=default;endArrow=diamondThin;endFill=1;dashed=1;" parent="1" source="10" target="5" edge="1">
                    <mxGeometry relative="1" as="geometry">
                        <Array as="points">
                            <mxPoint x="10" y="650"/>
                            <mxPoint x="10" y="350"/>
                        </Array>
                    </mxGeometry>
                </mxCell>
                <mxCell id="10" value="SortedSet" style="rounded=0;whiteSpace=wrap;html=1;fillColor=#fa6800;fontColor=#000000;strokeColor=#C73500;fontSize=25;fontStyle=0;fontFamily=Comic Sans MS;" parent="1" vertex="1">
                    <mxGeometry x="40" y="620" width="160" height="60" as="geometry"/>
                </mxCell>
                <mxCell id="36" style="edgeStyle=none;html=1;entryX=0.25;entryY=1;entryDx=0;entryDy=0;strokeColor=#000000;strokeWidth=3;fontFamily=Comic Sans MS;fontSize=25;fontColor=default;" parent="1" source="11" target="10" edge="1">
                    <mxGeometry relative="1" as="geometry">
                        <Array as="points">
                            <mxPoint x="80" y="750"/>
                        </Array>
                    </mxGeometry>
                </mxCell>
                <mxCell id="11" value="TreeSet" style="rounded=1;whiteSpace=wrap;html=1;fontSize=25;fontColor=#000000;fillColor=#647687;strokeColor=#314354;fontStyle=0;fontFamily=Comic Sans MS;" parent="1" vertex="1">
                    <mxGeometry x="110" y="720" width="120" height="60" as="geometry"/>
                </mxCell>
                <mxCell id="30" style="edgeStyle=none;html=1;exitX=0;exitY=0.5;exitDx=0;exitDy=0;entryX=0.25;entryY=1;entryDx=0;entryDy=0;strokeColor=#000000;strokeWidth=3;fontFamily=Comic Sans MS;fontSize=25;fontColor=default;" parent="1" source="12" target="6" edge="1">
                    <mxGeometry relative="1" as="geometry">
                        <Array as="points">
                            <mxPoint x="360" y="490"/>
                        </Array>
                    </mxGeometry>
                </mxCell>
                <mxCell id="12" value="ArrayList" style="rounded=1;whiteSpace=wrap;html=1;fontSize=25;fontColor=#000000;fillColor=#647687;strokeColor=#314354;fontStyle=0;fontFamily=Comic Sans MS;" parent="1" vertex="1">
                    <mxGeometry x="380" y="460" width="120" height="60" as="geometry"/>
                </mxCell>
                <mxCell id="31" style="edgeStyle=none;html=1;strokeColor=#000000;strokeWidth=3;fontFamily=Comic Sans MS;fontSize=25;fontColor=default;" parent="1" source="13" edge="1">
                    <mxGeometry relative="1" as="geometry">
                        <mxPoint x="360" y="380" as="targetPoint"/>
                        <Array as="points">
                            <mxPoint x="360" y="570"/>
                        </Array>
                    </mxGeometry>
                </mxCell>
                <mxCell id="38" style="edgeStyle=none;html=1;entryX=0;entryY=0.5;entryDx=0;entryDy=0;strokeColor=#000000;strokeWidth=3;fontFamily=Comic Sans MS;fontSize=25;fontColor=default;" parent="1" source="13" target="17" edge="1">
                    <mxGeometry relative="1" as="geometry"/>
                </mxCell>
                <mxCell id="13" value="LinkedList" style="rounded=1;whiteSpace=wrap;html=1;fontSize=25;fontColor=#000000;fillColor=#647687;strokeColor=#314354;fontStyle=0;fontFamily=Comic Sans MS;" parent="1" vertex="1">
                    <mxGeometry x="380" y="540" width="130" height="60" as="geometry"/>
                </mxCell>
                <mxCell id="32" style="edgeStyle=none;html=1;entryX=0.25;entryY=1;entryDx=0;entryDy=0;strokeColor=#000000;strokeWidth=3;fontFamily=Comic Sans MS;fontSize=25;fontColor=default;" parent="1" source="14" target="6" edge="1">
                    <mxGeometry relative="1" as="geometry">
                        <Array as="points">
                            <mxPoint x="360" y="640"/>
                        </Array>
                    </mxGeometry>
                </mxCell>
                <mxCell id="14" value="Vector" style="rounded=1;whiteSpace=wrap;html=1;fontSize=25;fontColor=#000000;fillColor=#647687;strokeColor=#314354;fontStyle=0;fontFamily=Comic Sans MS;" parent="1" vertex="1">
                    <mxGeometry x="380" y="620" width="120" height="60" as="geometry"/>
                </mxCell>
                <mxCell id="37" style="edgeStyle=none;html=1;entryX=0.5;entryY=1;entryDx=0;entryDy=0;strokeColor=#000000;strokeWidth=3;fontFamily=Comic Sans MS;fontSize=25;fontColor=default;endArrow=diamondThin;endFill=1;dashed=1;" parent="1" source="15" target="14" edge="1">
                    <mxGeometry relative="1" as="geometry"/>
                </mxCell>
                <mxCell id="15" value="Stack" style="rounded=1;whiteSpace=wrap;html=1;fontSize=25;fontColor=#000000;fillColor=#647687;strokeColor=#314354;fontFamily=Comic Sans MS;" parent="1" vertex="1">
                    <mxGeometry x="380" y="730" width="120" height="60" as="geometry"/>
                </mxCell>
                <mxCell id="40" style="edgeStyle=none;html=1;entryX=0.25;entryY=1;entryDx=0;entryDy=0;strokeColor=#000000;strokeWidth=3;fontFamily=Comic Sans MS;fontSize=25;fontColor=default;" parent="1" source="16" target="7" edge="1">
                    <mxGeometry relative="1" as="geometry">
                        <Array as="points">
                            <mxPoint x="640" y="450"/>
                        </Array>
                    </mxGeometry>
                </mxCell>
                <mxCell id="16" value="PriorityQueue" style="rounded=1;whiteSpace=wrap;html=1;fontSize=25;fontColor=#000000;fillColor=#647687;strokeColor=#314354;fontStyle=0;fontFamily=Comic Sans MS;" parent="1" vertex="1">
                    <mxGeometry x="660" y="420" width="180" height="60" as="geometry"/>
                </mxCell>
                <mxCell id="17" value="Deque" style="rounded=0;whiteSpace=wrap;html=1;fillColor=#fa6800;fontColor=#000000;strokeColor=#C73500;fontSize=25;fontStyle=0;fontFamily=Comic Sans MS;" parent="1" vertex="1">
                    <mxGeometry x="600" y="540" width="160" height="60" as="geometry"/>
                </mxCell>
                <mxCell id="39" style="edgeStyle=none;html=1;strokeColor=#000000;strokeWidth=3;fontFamily=Comic Sans MS;fontSize=25;fontColor=default;" parent="1" source="18" target="17" edge="1">
                    <mxGeometry relative="1" as="geometry"/>
                </mxCell>
                <mxCell id="18" value="ArrayDeque" style="rounded=1;whiteSpace=wrap;html=1;fontSize=25;fontColor=#000000;fillColor=#647687;strokeColor=#314354;fontStyle=0;fontFamily=Comic Sans MS;" parent="1" vertex="1">
                    <mxGeometry x="610" y="670" width="140" height="60" as="geometry"/>
                </mxCell>
                <mxCell id="33" style="edgeStyle=none;html=1;exitX=0;exitY=0.5;exitDx=0;exitDy=0;entryX=0.25;entryY=1;entryDx=0;entryDy=0;strokeColor=#000000;strokeWidth=3;fontFamily=Comic Sans MS;fontSize=25;fontColor=default;" parent="1" source="19" target="5" edge="1">
                    <mxGeometry relative="1" as="geometry">
                        <Array as="points">
                            <mxPoint x="80" y="460"/>
                        </Array>
                    </mxGeometry>
                </mxCell>
                <mxCell id="19" value="HashSet" style="rounded=1;whiteSpace=wrap;html=1;fontSize=25;fontColor=#000000;fillColor=#647687;strokeColor=#314354;fontStyle=0;fontFamily=Comic Sans MS;" parent="1" vertex="1">
                    <mxGeometry x="120" y="430" width="120" height="60" as="geometry"/>
                </mxCell>
                <mxCell id="34" style="edgeStyle=none;html=1;entryX=0.25;entryY=1;entryDx=0;entryDy=0;strokeColor=#000000;strokeWidth=3;fontFamily=Comic Sans MS;fontSize=25;fontColor=default;" parent="1" source="20" target="5" edge="1">
                    <mxGeometry relative="1" as="geometry">
                        <Array as="points">
                            <mxPoint x="80" y="540"/>
                        </Array>
                    </mxGeometry>
                </mxCell>
                <mxCell id="20" value="LinkedHashSet" style="rounded=1;whiteSpace=wrap;html=1;fontSize=25;fontColor=#000000;fillColor=#647687;strokeColor=#314354;fontStyle=0;fontFamily=Comic Sans MS;" parent="1" vertex="1">
                    <mxGeometry x="120" y="510" width="180" height="60" as="geometry"/>
                </mxCell>
                <mxCell id="43" value="" style="group" parent="1" vertex="1" connectable="0">
                    <mxGeometry x="10" y="150" width="70" height="70" as="geometry"/>
                </mxCell>
                <mxCell id="41" value="Extends" style="edgeStyle=none;html=1;exitX=0.5;exitY=0;exitDx=0;exitDy=0;strokeColor=#000000;strokeWidth=3;fontFamily=Comic Sans MS;fontSize=17;fontColor=default;endArrow=diamondThin;endFill=1;dashed=1;" parent="43" edge="1">
                    <mxGeometry y="20" relative="1" as="geometry">
                        <mxPoint as="sourcePoint"/>
                        <mxPoint x="60" as="targetPoint"/>
                        <mxPoint as="offset"/>
                    </mxGeometry>
                </mxCell>
                <mxCell id="42" value="Implement" style="edgeStyle=none;html=1;strokeColor=#000000;strokeWidth=3;fontFamily=Comic Sans MS;fontSize=17;fontColor=default;" parent="43" edge="1">
                    <mxGeometry x="0.1429" y="30" relative="1" as="geometry">
                        <mxPoint y="70" as="sourcePoint"/>
                        <mxPoint x="70" y="70" as="targetPoint"/>
                        <mxPoint as="offset"/>
                    </mxGeometry>
                </mxCell>
                <mxCell id="44" value="Map" style="rounded=0;whiteSpace=wrap;html=1;fillColor=#fa6800;fontColor=#000000;strokeColor=#C73500;fontSize=25;fontStyle=0;fontFamily=Comic Sans MS;" vertex="1" parent="1">
                    <mxGeometry x="870" y="220" width="160" height="60" as="geometry"/>
                </mxCell>
                <mxCell id="45" value="SortedMap" style="rounded=0;whiteSpace=wrap;html=1;fillColor=#fa6800;fontColor=#000000;strokeColor=#C73500;fontSize=25;fontStyle=0;fontFamily=Comic Sans MS;" vertex="1" parent="1">
                    <mxGeometry x="870" y="320" width="160" height="60" as="geometry"/>
                </mxCell>
                <mxCell id="47" style="edgeStyle=none;html=1;exitX=0.5;exitY=0;exitDx=0;exitDy=0;entryX=0.5;entryY=1;entryDx=0;entryDy=0;strokeColor=#000000;strokeWidth=3;fontFamily=Comic Sans MS;fontSize=25;fontColor=default;endArrow=diamondThin;endFill=1;dashed=1;" edge="1" parent="1" source="45" target="44">
                    <mxGeometry relative="1" as="geometry">
                        <mxPoint x="1090" y="330" as="sourcePoint"/>
                        <mxPoint x="1090" y="290" as="targetPoint"/>
                    </mxGeometry>
                </mxCell>
                <mxCell id="48" value="HashMap" style="rounded=1;whiteSpace=wrap;html=1;fontSize=25;fontColor=#000000;fillColor=#647687;strokeColor=#314354;fontStyle=0;fontFamily=Comic Sans MS;" vertex="1" parent="1">
                    <mxGeometry x="1070" y="300" width="180" height="60" as="geometry"/>
                </mxCell>
                <mxCell id="50" style="edgeStyle=none;html=1;entryX=1;entryY=0.5;entryDx=0;entryDy=0;strokeColor=#000000;strokeWidth=3;fontFamily=Comic Sans MS;fontSize=25;fontColor=default;exitX=1;exitY=0.5;exitDx=0;exitDy=0;" edge="1" parent="1" source="48" target="44">
                    <mxGeometry relative="1" as="geometry">
                        <Array as="points">
                            <mxPoint x="1270" y="330"/>
                            <mxPoint x="1270" y="250"/>
                        </Array>
                        <mxPoint x="1150" y="340" as="sourcePoint"/>
                        <mxPoint x="1130" y="270" as="targetPoint"/>
                    </mxGeometry>
                </mxCell>
                <mxCell id="51" value="LinkedHashMap" style="rounded=1;whiteSpace=wrap;html=1;fontSize=25;fontColor=#000000;fillColor=#647687;strokeColor=#314354;fontStyle=0;fontFamily=Comic Sans MS;" vertex="1" parent="1">
                    <mxGeometry x="1070" y="420" width="180" height="60" as="geometry"/>
                </mxCell>
                <mxCell id="56" value="TreeMap" style="rounded=1;whiteSpace=wrap;html=1;fontSize=25;fontColor=#000000;fillColor=#647687;strokeColor=#314354;fontStyle=0;fontFamily=Comic Sans MS;" vertex="1" parent="1">
                    <mxGeometry x="860" y="420" width="180" height="60" as="geometry"/>
                </mxCell>
                <mxCell id="57" style="edgeStyle=none;html=1;strokeColor=#000000;strokeWidth=3;fontFamily=Comic Sans MS;fontSize=25;fontColor=default;entryX=0.5;entryY=1;entryDx=0;entryDy=0;" edge="1" parent="1" target="45">
                    <mxGeometry relative="1" as="geometry">
                        <mxPoint x="950" y="420" as="sourcePoint"/>
                        <mxPoint x="949.5" y="410" as="targetPoint"/>
                    </mxGeometry>
                </mxCell>
                <mxCell id="59" style="edgeStyle=none;html=1;strokeColor=#000000;strokeWidth=3;fontFamily=Comic Sans MS;fontSize=25;fontColor=default;entryX=0;entryY=0.5;entryDx=0;entryDy=0;exitX=0.25;exitY=0;exitDx=0;exitDy=0;endArrow=diamond;endFill=1;dashed=1;" edge="1" parent="1" source="17" target="7">
                    <mxGeometry relative="1" as="geometry">
                        <mxPoint x="580" y="490" as="sourcePoint"/>
                        <mxPoint x="580" y="450" as="targetPoint"/>
                        <Array as="points">
                            <mxPoint x="640" y="510"/>
                            <mxPoint x="560" y="510"/>
                            <mxPoint x="560" y="350"/>
                        </Array>
                    </mxGeometry>
                </mxCell>
                <mxCell id="60" style="edgeStyle=none;html=1;entryX=0.5;entryY=1;entryDx=0;entryDy=0;strokeColor=#000000;strokeWidth=3;fontFamily=Comic Sans MS;fontSize=25;fontColor=default;endArrow=diamondThin;endFill=1;dashed=1;exitX=0.5;exitY=0;exitDx=0;exitDy=0;" edge="1" parent="1" source="51" target="48">
                    <mxGeometry relative="1" as="geometry">
                        <mxPoint x="1170" y="550" as="sourcePoint"/>
                        <mxPoint x="1170" y="490" as="targetPoint"/>
                    </mxGeometry>
                </mxCell>
            </root>
        </mxGraphModel>
    </diagram>
</mxfile>